<svg xmlns="http://www.w3.org/2000/svg" viewBox="0 0 1374.25 1701.36"><defs><style>.cls-1{fill:#380a44;}.cls-2{fill:#46749e;}.cls-3{fill:#499dce;}.cls-4{fill:#462b93;}</style></defs><g id="Capa_2" data-name="Capa 2"><g id="Capa_1-2" data-name="Capa 1"><path class="cls-1" d="M825.88,1378.66c-.44,13.78-5.52,26.65-7.8,40.08-.54,3.2-3.19,3.92-6,4.18-5.31.51-10.61,1.52-15.91,1.51-14,0-27.91,1.77-41.88,2.16-5.78.17-9,2.26-11.12,7.83-8.55,22.77-17.64,45.33-26.27,68.06-14.66,38.62-26.15,78.35-41,116.91-4.77,12.41-3.73,13.43,9.86,13.44q66,.08,132,.07c2.67,0,5.33,0,8,.07,3.67,0,6.39,1.49,7.74,5.12q10.42,28.11,20.87,56.2c1.58,4.24,0,6.37-4.48,6.44-3,.06-6,.1-9,.1q-292.38.12-584.77.21c-20,0-40,.91-59.95-.32,1.81-3.62,5.17-3.78,8.56-3.82,4.66-.05,9.33.06,14-.14,3.05-.13,6.49.91,9.62-2.09a25.11,25.11,0,0,0-3.36-1.42c-12.44-2.76-13-3.51-10.19-16.07.89-4,1.93-7.86-1-11.43-4.45-5.49-4.4-12-2.85-18.1,1.6-6.27-.47-10.16-5.1-13.59,5.86-1.84,11.89-1,17.86-1.07,13.66,0,27.32-.13,41,.16,6,.13,9.78-2,12.73-7.41,12.24-22.51,24.94-44.77,37.35-67.19q33.36-60.3,66.64-120.63a66.12,66.12,0,0,0,5.81-13.76c2.74-9.49,1.71-11.7-7.39-15.11s-18.1-6.64-27.17-9.93a37.55,37.55,0,0,1-10.54-5.57,19.63,19.63,0,0,1-8-16.28c-.18-10.8,2.47-21.13,4.09-31.63,2.83-18.43,5.62-36.86,8.55-55.27.52-3.25.88-6.62,2.63-9.57,2.18,1.78,2.5,4.55,3.64,6.88,1.58,3.22,4.21,5.64,7.79,4.71,6.65-1.72,13.05.29,19.55.37.71,11.47-2.81,22.39-4.48,33.54-2,13.15-4.61,26.2-6.95,39.29-.74,4.18-.83,8.08,4.24,9.77s9.92,4.16,15.07,4.93c21.48,3.22,42,10.09,62.87,15.7,18,4.84,35.84,10.1,53.88,14.7,8.67,2.2,9.75,1.25,11.29-7.48,2.31-13.09,4-26.29,6.45-39.36s2.8-26.46,7.26-39.11a36.18,36.18,0,0,1,.52,13.78,11.83,11.83,0,0,0,3.4,10.65c6.23,6.78,12.72,12.34,22.84,9.85-3,25.23-10.78,49.36-17.24,73.8-1.37,5.21-5,6.63-9.89,6.11-13.23-1.41-26.47-2.72-39.68-4.27-11.7-1.38-21.2,2.5-27.38,12.39-7.93,12.7-15.51,25.66-22.48,38.9-22.78,43.33-45.91,86.48-66.89,130.73-7.09,15-6.5,16.21,10,16.22q92,0,183.91,0c3.33,0,6.66-.18,10-.48,5.43-.49,9-3.16,11.27-8.4q22.74-52.73,43.94-106.1Q642.88,1491,654,1464.29a206.58,206.58,0,0,0,8.83-27.57c1.62-6.23.21-8.16-6.41-7.29-12.27,1.61-24.61,1.19-36.9,2-9.84.65-9.82.71-13.54-9q-8.62-22.38-17.28-44.74c-2.4-6.2-5.38-12.19-6.31-18.88,3.58,1.18,4.66,4.29,6,7.36,2,4.52,4.36,8.89,6.65,13.27,1.26,2.43,3.18,5,6,4.56,6.49-1,12.32,1.72,18.46,2.36,4.83.51,10.44.11,14.22-2.88s-1.18-7.23-.69-11.07a26.23,26.23,0,0,0-.07-4c5.08,2.86,4.93,8.32,6.29,13,3.12,10.65,3.45,11.07,14.32,11.08q58.95.06,117.92,0c2.33,0,4.66,0,7-.19,3.56-.21,5.46-2.13,5.52-5.74.05-2.66.07-5.33.07-8q0-57.46.09-114.93c0-5-.44-10,.9-14.91,1.72,3.8,1.09,7.83,1.1,11.78q.08,61.23.12,122.46c0,3,.14,6,.36,8.94.2,2.6,1.77,4.09,4.22,4.93,12.34,4.2,27.11-2.31,32.17-14.28A7.79,7.79,0,0,1,825.88,1378.66Zm-121.46,27c-.3-1.74-1.31-2.46-2.73-2.33a2.43,2.43,0,0,0-2.38,2.48c.08,1.76,1.19,3,3.14,2.47A2.56,2.56,0,0,0,704.42,1405.7ZM331.72,1613c-1.56,0-2.41.43-2.49,1.46a1.78,1.78,0,0,0,1.62,2,1.69,1.69,0,0,0,1.89-1.62C332.9,1613.75,332.33,1613.07,331.72,1613Z"/><path class="cls-2" d="M16.15,197.89a354.17,354.17,0,0,1,9.32-61.1c6.75-27.52,14.66-54.65,26.78-80.39A196.61,196.61,0,0,1,85.94,7.1c8.33-9.07,9-9,19.07-2.24,24,16.19,48.14,32.25,71.89,48.85,6.2,4.34,11.47,4.88,18.42,2.24,35.76-13.58,73.05-20.67,111.06-23.07,48.87-3.09,97.14,1.55,144.22,15.72a267,267,0,0,1,29.93,11.15c5.53,2.42,9.63,2.13,14.66-1.24C520.65,41.46,546.35,24.77,572,8c1.94-1.28,3.81-2.69,5.82-3.87,5.49-3.25,5.6-3.18,9,2.62,8,13.47,15.52,27.27,21.27,41.8,10.8,27.29,24.07,53.68,31.15,82.37,5.46,22.13,12,44,15.08,66.7,3.09,22.46,4.46,45,5.52,67.63,1.7,36.31-3.68,71.67-12,106.76a58.85,58.85,0,0,1-2.33,6.52c.1-5.52.72-11.21-7.52-11.56-2.2-.09-3.74-2.45-5.38-4.1-5.1-5.13-11-6.82-17.86-3.71-.54-2.51-.37-4.89,1.36-7l.2-.89c-.75-3.68,0-7.31.44-10.92a467.55,467.55,0,0,0,1-107.58c-5.87-58-21.22-113.77-44.39-167.33-3.59-8.29-3.68-8.38-11.34-4.12C540.21,73.45,518.37,85.57,496.69,98c-4.48,2.56-8.23,2.87-13.05.84-10.43-4.39-20.95-8.74-31.77-11.93-54-15.95-109.44-19.62-165.2-14.95C248.22,75.15,210,81.1,173,92.87c-7.6,2.42-13.07,1-19.26-3.5C139.7,79.21,125.2,69.72,110.84,60c-7-4.75-7.48-4.8-11,2.65-4.68,9.92-9.23,19.95-13.18,30.18C65.22,148.33,53.92,206,51.45,265.25c-1.53,36.66.66,73.22,8.09,109.3a1.08,1.08,0,0,0,.25,1.42l.72,5.7-.36.21.45,0,1,2.59a1.42,1.42,0,0,0,.44,1.61C70.67,417.86,84.74,447,103.56,474c30.17,43.28,70.15,73.86,120.17,89.71,56.34,17.86,114,22.13,172.41,9.92,8.73-1.82,17.37-4.6,26.44-4.62,6.34,1.41,11.52-1.55,16.73-4.43l-.12-.59.58-.15c7.47,10.3,5.81,20.87.9,31.53-7.28,4.86-15.63,7.25-23.81,9.83-38.6,12.16-78.15,15.44-118.38,12.6-22.35-1.58-44.38-4.86-65.5-12.45C175.39,584.61,128,549.79,90.7,501.3c-2.24-2.91-3.67-6.79-8-8.55-.54,3.09.43,5.24,1.07,7.43q16.62,55.95,37.19,110.59c1.28,3.39,3.33,6.55,3.18,10.38-1.16.64-2.32,1.35-2.47,2.8-1,10-1.26,11.11-10,9.92-8.19-1.11-12.9,2.9-17.79,7.81-6.73-11.94-10.38-25.14-15-37.9A1259.07,1259.07,0,0,1,29.71,427.09,819.45,819.45,0,0,1,14,305.56c-1.8-35.93-1.55-71.76,2.07-107.56ZM193,570.48c-.35-2.47-1.7-4.15-4.47-4a3,3,0,0,0-2.95,3.29c0,2.78,1.54,4.27,4.34,4A3.12,3.12,0,0,0,193,570.48Zm-154.82-411a3,3,0,0,0,3.19-2.94,2.87,2.87,0,0,0-2.71-3.35c-2.26-.25-3.74,1-3.64,3.35C35.07,158.35,36.29,159.37,38.16,159.47ZM500.88,72.53a2.5,2.5,0,0,0-2.69-2.25,2.73,2.73,0,0,0-2.86,3.17A2.31,2.31,0,0,0,498,75.69,2.81,2.81,0,0,0,500.88,72.53Z"/><path class="cls-3" d="M614.71,359.11c6.85-3.11,12.76-1.42,17.86,3.71,1.64,1.65,3.18,4,5.38,4.1,8.24.35,7.62,6,7.52,11.56q-.76,3.11-1.55,6.2l-1.17,3a17.38,17.38,0,0,1-2.13,7.38,1,1,0,0,0-.32,1.54q-.87,3-1.75,6a4.93,4.93,0,0,0-1.45,5.29c-.82,3.07-.84,6.46-3.51,8.8a2,2,0,0,0-1,2.49c.28,1.71,0,3.17-1.69,4.06a1.29,1.29,0,0,0-.34,1.92,9.65,9.65,0,0,1-1.66,7.33,5.79,5.79,0,0,0-2.07,5.19c-.95,2.83-1.52,5.86-2.93,8.44-2.63,4.86-.69,6.95,3.78,9,20,9.09,40,18.24,59.73,27.79A1196.14,1196.14,0,0,1,872.12,593.69c56,40.83,107.36,87,154.87,137.43a955.18,955.18,0,0,1,64.26,75c-.71,3.65.76,7,1.54,10.41-.27.26-.54.5-.82.74-9.2,4-9.26,4-6.77,12.75.82,2.91,2.29,6.48,0,8.47-4.54,4-7.53,10.4-14.8,10.57l-.13-.18a3.11,3.11,0,0,0-2.48-3.17l-.28-.28a2.24,2.24,0,0,0-1.41-2.17l0-.09a2.27,2.27,0,0,0-1.59-2.17l-.14-.16a3.37,3.37,0,0,0-2.62-3.29,2.51,2.51,0,0,0-1.78-2.2c-.57-.75-1.15-1.49-1.72-2.23a2.42,2.42,0,0,0-1.74-2.15c-28-34.69-58.6-67-90.09-98.6a591.28,591.28,0,0,0-95.5-77.83c-60.19-39.31-122-75.75-186.76-107.22a4.63,4.63,0,0,0-4-2.06l0,0a6,6,0,0,0-5.61-2.44l-.14,0c-4.12-5.34-9.93-7-16.27-7.59l.06,0a10.45,10.45,0,0,0-8.48-3.8,1.74,1.74,0,0,1-1.38-.53c-4.1-3.38-7.89-7.63-14.1-4.92L632.53,527c-6.66,2.46-11.13,6.73-11.72,14.19l0-.05-1.75,2.28-.54-.49.57.45a4.14,4.14,0,0,0-2.41,3.69v0l-1.82,2.28.08-.09a3.26,3.26,0,0,0-1.74,2.72.91.91,0,0,1-.59.9l-1.74,2.82a1.25,1.25,0,0,1-.71,1.06c-2.35.9-3.26,2.67-3.12,5.1l-1.53,2.78c-3.36,1.31-4.79,3.73-4.22,7.31a1.26,1.26,0,0,1-.72,1l-1.44,2.86a1.17,1.17,0,0,1-.63,1.07,6.47,6.47,0,0,0-3.47,6.92,1,1,0,0,1-.61.95c-5.62,5.19-9.23,11.32-9,19.25l-1.32,2.75a2.93,2.93,0,0,0-1.28,2.74,1.34,1.34,0,0,1-.5,1.28,8.74,8.74,0,0,0-3.39,8.9,1,1,0,0,1-.44,1.14,10.08,10.08,0,0,0-3.68,10.61c-.34,2.64-.8,5.23-2.39,7.47-8.33,6.57-8.4,6.38-16-1-4.39-4.25-6.47-9-6-15,.5-7-3.12-11.21-9.23-13.69-2.4-1-4.91-1.7-7.69-2.65.45-4.91,1.45-9.8.39-14.7a.75.75,0,0,1,.42-.94,5,5,0,0,0,1.68-4.82c5-16.31,13.37-31.14,20.32-46.6,3.17-3.42,4.81-7.64,6.26-12l.43-.73c3.08-5.12,6.2-10.22,9.24-15.36,1.28-2.18,3-4.32,1.58-7.11.84.11,1.7.36,2.12-.71-.21-.07-.52-.28-.63-.21a13.41,13.41,0,0,0-1.31,1.08l-11.48,11.38c-.78.62-1.62,1.18-2.33,1.87-34.57,34-74.55,59.63-119.55,77.54,4.91-10.66,6.57-21.23-.9-31.53,2.15-.88,4.28-1.81,6.46-2.63,77.41-29.08,129-83.46,157.41-160.59C608.6,387.1,611.19,373,614.71,359.11Z"/><path class="cls-4" d="M633,1368.49a26.23,26.23,0,0,1,.07,4c-.49,3.84,4.41,8.13.69,11.07s-9.39,3.39-14.22,2.88c-6.14-.64-12-3.35-18.46-2.36-2.78.43-4.7-2.13-6-4.56-2.29-4.38-4.64-8.75-6.65-13.27-1.36-3.07-2.44-6.18-6-7.36l-1.29-3.42c1-3,.26-5.24-2.91-6.35-3.55-7.2-5.13-15.46-12.27-23a265.66,265.66,0,0,0-8,28.5l-.9,2.83a10.52,10.52,0,0,1-.43,1.58c-10.12,2.49-16.61-3.07-22.84-9.85a11.83,11.83,0,0,1-3.4-10.65,36.38,36.38,0,0,0-.51-13.78c4.57-25.18,8.88-50.42,13.89-75.51,1.5-7.56-.41-12.14-6.26-17.1-26.9-22.77-53.35-46.06-79.95-69.18q-22.58-19.62-45.13-39.28c-2.24-1.94-4.56-4.93-7.59-4.14-3.66,1-2.29,5-2.66,7.75q-4.8,35.58-9.27,71.2c-3.11,24.74-6.07,49.49-9.09,74.23l-.92,2.48q-1.32,8.79-2.66,17.57c-6.5-.08-12.9-2.09-19.55-.37-3.58.93-6.21-1.49-7.79-4.71-1.14-2.33-1.46-5.1-3.64-6.88l1.2-7.84a1.58,1.58,0,0,0,.25-2.19c2.71-18.44,4.05-37.08,8-55.33,1.66-.74,3.9-1,3.66-3.56-.19-2-2.06-2.1-3.49-2.64,1.66-20.56,3.51-41.11,4.91-61.69,1-14.6.91-29.24.5-43.9-.58-20.59-8.23-38.3-20.9-53.89-15.31-18.85-31.88-36.62-48.37-54.46C280,978.91,266.4,961.14,253.6,942.89,229.34,908.28,206,873,185.06,836.29c-6.91-12.12-14.21-24.06-19.67-37,10.88-4,22.7-5.55,32-13.37,1.59-1.34,4.28-1.37,6.46-2,8.6,13.83,17.16,27.68,25.8,41.49,34.64,55.41,72.19,108.71,115.11,158.1,31,35.72,63.17,70.42,98.32,102.13,34.4,31,71.81,58.38,108.24,86.91,12.57,9.85,22.67,21.55,29.43,36,3.53,7.53,6.63,15.28,9.55,23.06,13.22,35.26,23,71.64,35,107.29C628.58,1348.44,633.69,1357.81,633,1368.49Z"/><path class="cls-1" d="M1339.36,1306.87c7.13,13.7,10.1,28.85,14.88,43.36,4.39,13.28,8.22,26.75,12.13,40.18,3.56,12.2,5,24.72,6.26,37.36,1.88,18.3,1.4,36.59,1.59,54.89,0,2,.09,4,0,6-.46,7-1.59,7.85-7.8,4.94-12.07-5.64-24.15-11.3-35.93-17.52-27.39-14.46-54.6-29.25-81.9-43.9a22.73,22.73,0,0,0-3.58-1.74c-3.21-1-4.56.55-4,3.52a61.64,61.64,0,0,0,2.7,8.57c6.75,18.46,13.45,37,18.76,55.9,1.7,6.09,3.57,12.13,4.07,18.5s-1.68,10.82-7,14.37c-8.73,5.82-18.53,9.15-28.27,12.46-27.9,9.48-56.68,14.48-86,17.13-19,1.72-37.92,1.6-56.9,1.67-47.1.16-85-19-115-54.75-13.1-15.56-24.64-32.3-37-48.4-13.21-17.19-28.22-32.83-42-49.53-4.63-5.63-10.06-10.64-13.41-17.26,4.06,0,6.28,2.78,8.9,5.36,4.78,4.72,6.16,4.19,9.08-2.63l3,.42c3,.72,5.76,0,8.44-1.43,1.81-.94,4.23-1.55,5.55-.16,5.86,6.14,10.53.93,15.56-1.23,1.13.64,2.54,1,3.38,1.94,9,9.78,17.78,19.84,27,29.43,15.94,16.54,29.53,35.14,46,51.27,20.39,20,44.17,32.61,72.27,37.76,41.16,7.54,81.53,4.58,121.35-7.78,13.35-4.14,14-5,10.19-18.22-8.89-30.4-21.33-59.5-33.34-88.75-1.83-4.47-5.24-7.35-9.33-10-6.36-4.12-13.64-7-18.64-13.14a11.4,11.4,0,0,1,8.66,1.18c2.2,1.22,4.18.94,6.59,0,9.44-3.5,18.31-8.87,28.86-9,2.54,0,4.25-1.86,4.95-4.28.63-2.18-.6-3.76-2.17-5.16-3.14-2.82-7.68-4.28-8.89-9,2.11-.07,3.78,1,5.55,2,12.61,6.61,24.37,14.66,36.89,21.48,29.22,15.92,57.94,32.76,87.72,47.66,1.74.88,3.58,2.71,5.47,1.43,2.6-1.77.6-4.17,0-6.29-6.27-23.49-14.09-46.49-21.71-69.56-3.84-11.66-8.94-22.94-11.38-35.06,2.4.75,3.63,2.75,4.94,4.65,1.45,2.11,3.53,3.33,6,2.52C1314.19,1314,1328.18,1315.12,1339.36,1306.87Zm-201.93,248.88c1.71,0,2.48-.67,2.56-1.67a2.16,2.16,0,0,0-2.21-2.39,1.72,1.72,0,0,0-1.84,1.74C1135.8,1554.87,1136.6,1555.69,1137.43,1555.75Z"/><path class="cls-4" d="M1339.36,1306.87c-11.18,8.25-25.17,7.08-37.58,11.21-2.43.81-4.51-.41-6-2.52-1.31-1.9-2.54-3.9-4.94-4.66-.43-1.61-.74-3.26-1.31-4.81-15.66-43.22-31.2-86.47-48.27-129.16-27.2-68.08-56-135.4-91.2-199.84-6.53-12-14.22-23.28-19.57-35.88,1.63.25,3.3.86,4.89.69,10.41-1.09,20.69-2.3,31.33-1.93,11,.38,12.3-3.57,6.71-13.4-1-1.72-2-3.43-3.07-5.08-4-6-8.27-12-9.2-19.5,11.47,14.37,20.07,30.57,29.22,46.38,26.06,45,47,92.57,67.24,140.43,25.43,60.11,48.62,121.08,70.15,182.69,3.41,9.74,6.5,19.58,9.74,29.38a3.05,3.05,0,0,0,.8,3.79Z"/><path class="cls-4" d="M205.82,1634.06c4.63,3.43,6.7,7.32,5.1,13.59-1.55,6.07-1.6,12.61,2.85,18.1,2.89,3.57,1.85,7.45,1,11.43-2.8,12.56-2.25,13.31,10.19,16.07a25.11,25.11,0,0,1,3.36,1.42c-3.13,3-6.57,2-9.62,2.09-4.65.2-9.32.09-14,.14-3.39,0-6.75.2-8.56,3.82-35.6-.17-71.19-.41-106.79-.48-26.62,0-53.24.13-79.86.19-2,0-4,0-6-.08-3.06-.19-4.08-1.94-3.15-4.75a56.5,56.5,0,0,1,2.27-5.54c7.47-16.33,15.14-32.57,22.34-49,2.3-5.26,5.18-7.69,11.18-7.65C92.68,1633.76,149.25,1633.88,205.82,1634.06Z"/><path class="cls-4" d="M898.85,1395.35c-2.92,6.82-4.3,7.35-9.08,2.63-2.62-2.58-4.84-5.38-8.9-5.36L843.23,1356c-1.42-1.39-2.73-2.9-4.22-4.19-4.56-4-6.34-3.43-7.82,2.68-1.94,8-3.56,16.12-5.31,24.19a7.79,7.79,0,0,0-2.83,3.95c-5.06,12-19.83,18.48-32.17,14.28-2.45-.84-4-2.33-4.22-4.93-.22-3-.35-6-.36-8.94q-.07-61.23-.12-122.46c0-4,.62-8-1.1-11.79,0-1.83.06-3.66.1-5.49l3.12-.66c8.42,9,16.71,18.06,25.29,26.87q59.55,61.13,117.83,123.46c-5,2.16-9.7,7.37-15.56,1.23-1.32-1.39-3.74-.78-5.55.16a11.91,11.91,0,0,1-8.45,1.43c.36-1.44,1.15-3.38-1-3.68S898.78,1393.78,898.85,1395.35Z"/><path class="cls-2" d="M1161.19,902c.93,7.51,5.17,13.45,9.2,19.5,1.09,1.65,2.09,3.36,3.07,5.08,5.59,9.83,4.26,13.78-6.71,13.4-10.64-.37-20.92.84-31.33,1.93-1.59.17-3.26-.44-4.89-.69l-.34-.6c.21-4.34-.21-8.3-5.53-9.38L1122,926.9a4.34,4.34,0,0,0-2.27-3.61l-2.56-3.62-1.28-1.55q-10.48-16.41-21-32.81c-7.82-12.34-17.48-23.43-24.54-36.28,7.27-.17,10.26-6.61,14.8-10.57,2.27-2,.8-5.56,0-8.47-2.49-8.79-2.43-8.8,6.77-12.75.37,1.5.31,3.32,2.3,3.75.34.07,1.19-.62,1.23-1,.24-2-1.24-2.74-2.71-3.46-.78-3.43-2.25-6.76-1.54-10.41,12.49,12.91,22.44,27.86,33.13,42.17,8.72,11.66,17.66,23.25,24.85,36l1.59,2.29.06.07c.73,4.38,2.1,8.32,6.81,10,.48.75,1,1.5,1.43,2.25l1.24,1.68A2.22,2.22,0,0,1,1161.19,902Z"/><path class="cls-3" d="M93.83,641.68c4.89-4.91,9.6-8.92,17.79-7.81,8.77,1.19,9,.11,10-9.92.15-1.45,1.31-2.16,2.47-2.8,4.1,9.7,8,19.47,12.34,29.08,9.92,22.16,20,44.24,30,66.36-3.57,7.94-11.84,7.23-18.29,9.8-1,.39-3.18-.19-3.59-1-4.13-7.73-11.47-6.4-18.22-6.78a.62.62,0,0,1-.27-.89,3.19,3.19,0,0,0-1.53-2.8A782,782,0,0,1,93.83,641.68Z"/><path class="cls-2" d="M126.38,718.64c6.75.38,14.09-.95,18.22,6.78.41.78,2.63,1.36,3.59,1,6.45-2.57,14.72-1.86,18.29-9.8a18.52,18.52,0,0,1,2.36,3.06c10.84,21.88,23.1,43,35,64.29-2.18.64-4.87.67-6.46,2-9.33,7.82-21.15,9.42-32,13.37-13.87-25.06-25.9-51-38.23-76.86A16.29,16.29,0,0,1,126.38,718.64Z"/><path class="cls-3" d="M359,1209.24c1.43.54,3.3.65,3.49,2.64.24,2.54-2,2.82-3.66,3.56A7.46,7.46,0,0,1,359,1209.24Z"/><path class="cls-4" d="M1157.69,896.61c-4.71-1.67-6.08-5.61-6.81-10C1153.84,889.48,1156.42,892.6,1157.69,896.61Z"/><path class="cls-2" d="M626.81,437.68a5.79,5.79,0,0,1,2.07-5.19C629,434.55,628.67,436.42,626.81,437.68Z"/><path class="cls-2" d="M637.1,407.89a4.93,4.93,0,0,1,1.45-5.29C638.8,404.56,638.66,406.42,637.1,407.89Z"/><path class="cls-1" d="M1338.34,1304.66a3.05,3.05,0,0,1-.8-3.79A4.62,4.62,0,0,1,1338.34,1304.66Z"/><path class="cls-2" d="M630.54,425.16a1.29,1.29,0,0,1,.34-1.92C630.77,423.88,630.65,424.52,630.54,425.16Z"/><path class="cls-2" d="M632.57,419.18a2,2,0,0,1,1-2.49Z"/><path class="cls-4" d="M1150.82,886.55l-1.59-2.29A2.53,2.53,0,0,1,1150.82,886.55Z"/><path class="cls-4" d="M1160.36,900.54l-1.24-1.68A1.54,1.54,0,0,1,1160.36,900.54Z"/><path class="cls-4" d="M16.15,197.89l0,.11-.31-.12Z"/><path class="cls-2" d="M642.75,387.69l1.17-3A2.69,2.69,0,0,1,642.75,387.69Z"/><path class="cls-2" d="M124.58,715a3.19,3.19,0,0,1,1.53,2.8A2.56,2.56,0,0,1,124.58,715Z"/><path class="cls-1" d="M350.76,1270.77a1.58,1.58,0,0,1-.25,2.19C350.6,1272.23,350.68,1271.5,350.76,1270.77Z"/><path class="cls-2" d="M640.3,396.61a1,1,0,0,1,.32-1.54A1,1,0,0,1,640.3,396.61Z"/><path class="cls-2" d="M704.42,1405.7a2.56,2.56,0,0,1-2,2.62c-2,.52-3.06-.71-3.14-2.47a2.43,2.43,0,0,1,2.38-2.48C703.11,1403.24,704.12,1404,704.42,1405.7Z"/><path class="cls-2" d="M331.72,1613c.61.08,1.18.76,1,1.86a1.69,1.69,0,0,1-1.89,1.62,1.78,1.78,0,0,1-1.62-2C329.31,1613.42,330.16,1612.94,331.72,1613Z"/><path class="cls-3" d="M193,570.48a3.12,3.12,0,0,1-3.08,3.32c-2.8.23-4.34-1.26-4.34-4a3,3,0,0,1,2.95-3.29C191.28,566.33,192.63,568,193,570.48Z"/><path class="cls-3" d="M38.17,159.47c-1.88-.1-3.1-1.12-3.17-2.94-.1-2.36,1.38-3.6,3.64-3.35a2.87,2.87,0,0,1,2.71,3.35A3,3,0,0,1,38.17,159.47Z"/><path class="cls-3" d="M500.88,72.53A2.81,2.81,0,0,1,498,75.69a2.31,2.31,0,0,1-2.63-2.24,2.73,2.73,0,0,1,2.86-3.17A2.5,2.5,0,0,1,500.88,72.53Z"/><path class="cls-3" d="M422.58,569a59.86,59.86,0,0,1,16.7-4.44C434.1,567.42,428.92,570.38,422.58,569Z"/><path class="cls-3" d="M616.07,352.15l.21-.9S616.07,352.15,616.07,352.15Z"/><path class="cls-4" d="M59.54,374.55a1,1,0,0,1,.25,1.43A1.09,1.09,0,0,1,59.54,374.55Z"/><path class="cls-4" d="M60.51,381.67l.09.24s-.45,0-.45,0Z"/><path class="cls-4" d="M61.62,384.49a1.32,1.32,0,0,1,.44,1.62A1.44,1.44,0,0,1,61.62,384.49Z"/><path class="cls-2" d="M558.8,777q.62,3,1.24,6.09a4.78,4.78,0,0,0,.76,5.79q1.26,5.58,2.5,11.16a15.12,15.12,0,0,0,3.34,12.67c1.72,7.62,6.73,14,8.1,21.77a5.82,5.82,0,0,0,2,4.18l0,0,1.16,2.11c.39,1.07.78,2.13,1.16,3.19a4.1,4.1,0,0,0,1.78,3.29,22.42,22.42,0,0,1,4.47,8.34,6.82,6.82,0,0,0,3.46,7.23l-.09-.25c.22,2.72,1.79,4.6,3.8,6.22a1.35,1.35,0,0,1,.57,1c.07,3.55,2.4,9.7-4.09,8.1s-9.94-1.65-11.4,5.46c-.17.87-2.15,1.29-3.17,2.08-6.52,5.06-14.29,6.34-22.15,7.39A117.46,117.46,0,0,1,538,867.57a7.57,7.57,0,0,0,4.46-6.65c.59-.65,2.71-.24,1.51-2.15l-1.61,2.05c-2.94,1.23-4.11,3.64-4.44,6.62-10-17.42-16-36.43-21.57-55.57-10.92-37.7-10.21-76.1-6.77-114.69,3-33.61,10.31-66.25,20.93-98.21.82-2.48,1.18-5.22,3.39-7.05,1.06,4.89.06,9.78-.39,14.69,2.78.95,5.29,1.68,7.69,2.65,6.11,2.48,9.73,6.73,9.23,13.69-.44,6,1.64,10.78,6,15,7.58,7.35,7.65,7.54,16,1-1.52,11.55-6,22.37-8.3,33.74-5.75,28.45-7.71,57.17-7.09,86.11a1.68,1.68,0,0,0,.5,1.51L558.5,773A2.9,2.9,0,0,0,558.8,777ZM540.51,619.61c.24-.15.63-.26.69-.46.19-.71-.15-1.16-.86-1.15a.92.92,0,0,0-.69.44C539.45,619.15,539.79,619.55,540.51,619.61Z"/><path class="cls-1" d="M563,526.85c.27-3.66,1.66-7.36-.49-10.92L574,504.54l-.19-.17c1.43,2.8-.29,4.94-1.57,7.12C569.23,516.63,566.11,521.73,563,526.85Z"/><path class="cls-2" d="M632.53,527a65.21,65.21,0,0,1-11.72,14.19C621.4,533.77,625.87,529.5,632.53,527Z"/><path class="cls-2" d="M594.47,584.81a86,86,0,0,1-9,19.25C585.24,596.13,588.85,590,594.47,584.81Z"/><path class="cls-2" d="M674.41,542.76c-5.82-1.69-11.4-3.88-16.27-7.59C664.48,535.73,670.29,537.42,674.41,542.76Z"/><path class="cls-2" d="M648.34,530.88c-5.12-.44-9.27-3.67-14.1-4.92C640.45,523.25,644.24,527.5,648.34,530.88Z"/><path class="cls-1" d="M556.34,539.55a16,16,0,0,1,6.27-12C561.15,531.91,559.51,536.13,556.34,539.55Z"/><path class="cls-2" d="M605.56,564.66a12.61,12.61,0,0,1-4.22,7.31C600.77,568.39,602.2,566,605.56,564.66Z"/><path class="cls-2" d="M578.53,620.87a18.4,18.4,0,0,1-3.68,10.61A10.08,10.08,0,0,1,578.53,620.87Z"/><path class="cls-2" d="M582.36,610.83a11.72,11.72,0,0,1-3.39,8.9A8.74,8.74,0,0,1,582.36,610.83Z"/><path class="cls-2" d="M658.2,535.21a11.72,11.72,0,0,1-8.48-3.8A10.45,10.45,0,0,1,658.2,535.21Z"/><path class="cls-2" d="M598.55,576.94a9.27,9.27,0,0,1-3.47,6.92A6.47,6.47,0,0,1,598.55,576.94Z"/><path class="cls-1" d="M574,504.54a13.41,13.41,0,0,1,1.31-1.08c.11-.07.42.14.63.21-.42,1.07-1.28.82-2.12.71Z"/><path class="cls-2" d="M610.21,556.78a7.07,7.07,0,0,1-3.12,5.1C607,559.45,607.86,557.68,610.21,556.78Z"/><path class="cls-2" d="M680.16,545.25a7.17,7.17,0,0,1-5.62-2.44A6,6,0,0,1,680.16,545.25Z"/><path class="cls-2" d="M619.13,543.42a4.18,4.18,0,0,1-2.41,3.69A4.18,4.18,0,0,1,619.13,543.42Z"/><path class="cls-2" d="M534.34,591c-.31-1.91-.05-3.62,1.68-4.82A5,5,0,0,1,534.34,591Z"/><path class="cls-2" d="M1070.29,848.85a3.24,3.24,0,0,1-2.48-3.17A3.11,3.11,0,0,1,1070.29,848.85Z"/><path class="cls-2" d="M684.13,547.29a4.18,4.18,0,0,1-4-2.06A4.63,4.63,0,0,1,684.13,547.29Z"/><path class="cls-2" d="M1064.34,840.81a3.24,3.24,0,0,1-2.62-3.29A3.37,3.37,0,0,1,1064.34,840.81Z"/><path class="cls-2" d="M620.85,541.18a2.35,2.35,0,0,1-1.75,2.28Z"/><path class="cls-2" d="M1061.72,837.51a2.17,2.17,0,0,1-1.78-2.19A2.51,2.51,0,0,1,1061.72,837.51Z"/><path class="cls-2" d="M1066.07,843.14a1.9,1.9,0,0,1-1.59-2.17A2.27,2.27,0,0,1,1066.07,843.14Z"/><path class="cls-2" d="M1067.53,845.4a1.74,1.74,0,0,1-1.41-2.17A2.24,2.24,0,0,1,1067.53,845.4Z"/><path class="cls-2" d="M1058.22,833.09a2,2,0,0,1-1.75-2.15A2.41,2.41,0,0,1,1058.22,833.09Z"/><path class="cls-2" d="M600.62,573a2.86,2.86,0,0,1-1.44,2.86Z"/><path class="cls-2" d="M584.14,606.81a2.39,2.39,0,0,1-1.28,2.74A2.93,2.93,0,0,1,584.14,606.81Z"/><path class="cls-2" d="M612.66,552.9a2.84,2.84,0,0,1-1.74,2.82Z"/><path class="cls-2" d="M615,549.28a3.2,3.2,0,0,1-1.74,2.72A3.26,3.26,0,0,1,615,549.28Z"/><path class="cls-2" d="M616.73,547.09a2.28,2.28,0,0,1-1.82,2.28Z"/><path class="cls-1" d="M581.14,1355.43a10.85,10.85,0,0,1-2.91-6.35C581.4,1350.19,582.18,1352.39,581.14,1355.43Z"/><path class="cls-1" d="M558,1354.61c-.3.94-.61,1.89-.9,2.83Z"/><path class="cls-1" d="M383.87,1272.71l-.92,2.48Z"/><path class="cls-4" d="M942.94,1191.67c20.34,13.89,40.6,27.93,61.06,41.66,60.3,40.45,122,78.73,184.31,115.94,1.21,4.74,5.75,6.2,8.89,9,1.57,1.4,2.8,3,2.17,5.16-.7,2.42-2.41,4.27-4.95,4.28-10.55.08-19.42,5.45-28.86,9-2.41.9-4.39,1.18-6.59,0a11.4,11.4,0,0,0-8.66-1.18l-7.8-4.87c-1.12-4.28-4.09-5.51-8.15-5l-3.93-2.94-2.07-1.21c-27.41-16.48-53.94-34.33-80.65-51.91q-62.58-41.21-123.63-84.66l-1.78-1.35-4.13-2.73c-.69-4.42-3.5-6-7.68-5.65l-4-2.57a12.69,12.69,0,0,0-.38-2.92c-1.43-3.64-.84-8.11-3.81-11-2.74-2.71-6.25-.69-9.44-.61-2.67.07-3.3-1.68-2.93-4,.65-4,3.19-6.08,6.78-7.73,10.8-4.95,21.77-7.26,33.45-3.67l6.42,4.51,1.74,1.29,1.93,1A2.44,2.44,0,0,0,942.94,1191.67Z"/><path class="cls-2" d="M1137.43,1555.75c-.83-.06-1.63-.88-1.49-2.32a1.72,1.72,0,0,1,1.84-1.74,2.16,2.16,0,0,1,2.21,2.39C1139.91,1555.08,1139.14,1555.71,1137.43,1555.75Z"/><path class="cls-3" d="M898.85,1395.35c-.07-1.57-.11-3.56,2-3.26s1.36,2.24,1,3.68Z"/><path class="cls-1" d="M785.18,1243.28c.61-2.27,1.72-2.15,3.12-.66Z"/><path class="cls-4" d="M1130.19,940.61a18.17,18.17,0,0,1-5.54-9.38C1130,932.31,1130.4,936.27,1130.19,940.61Z"/><path class="cls-3" d="M1092.79,816.5c1.47.72,3,1.5,2.71,3.46,0,.41-.89,1.1-1.23,1-2-.43-1.93-2.25-2.3-3.75C1092.25,817,1092.52,816.76,1092.79,816.5Z"/><path class="cls-4" d="M1122,926.9a4.41,4.41,0,0,1-2.27-3.61A4.34,4.34,0,0,1,1122,926.9Z"/><path class="cls-4" d="M1117.19,919.67l-1.28-1.56Z"/><path class="cls-4" d="M552.21,892.77c7.86-1,15.63-2.33,22.15-7.39,1-.79,3-1.21,3.17-2.08,1.46-7.11,5-7,11.4-5.46s4.16-4.55,4.09-8.1Q603,884,612.87,898.35c15.59,22.47,34.09,42.45,52.82,62.27,27.69,29.31,58.89,54.75,89.06,81.33,26.42,23.28,52,47.5,79.81,69.23l1.78,1.37,5.71,4.77c-2,1.65-5,2.92-5.92,5-2.38,5.75-6.16,9-12.24,10-1.57.24-3.92,1.39-3.33,3,2.34,6.18-4.34,6.44-6,9.9-29.15-21-57.15-43.47-84.88-66.29q-40.06-33-77.59-68.83c-35.22-33.53-68.36-69-95.6-109.48C554.83,898.11,552.94,895.76,552.21,892.77Zm48.44-3.61c-.12-2.57-2.06-3.16-4.09-3.41a2.16,2.16,0,0,0-2.69,2.16,3.32,3.32,0,0,0,2.86,3.53A3.24,3.24,0,0,0,600.65,889.16Z"/><path class="cls-1" d="M814.56,1145.19c1.66-3.46,8.34-3.72,6-9.9-.59-1.57,1.76-2.72,3.33-3,6.08-.94,9.86-4.21,12.24-10,.88-2.13,3.88-3.4,5.92-5,7.27,2.79,12.49,8.55,18.59,13,21.37,15.57,42.6,31.34,63.86,47,2.1,1.55,4.63,2.67,5.69,5.34-11.69-3.6-22.66-1.29-33.46,3.66-3.59,1.65-6.13,3.76-6.78,7.73-.37,2.27.26,4,2.93,4,3.19-.08,6.7-2.1,9.44.61,3,2.91,2.38,7.38,3.81,11a12.69,12.69,0,0,1,.38,2.92c-5.87-2.46-10.76-6.48-15.82-10.16q-36.2-26.33-72.22-52.85A10.44,10.44,0,0,1,814.56,1145.19Z"/><path class="cls-1" d="M910.49,1215.16c4.18-.32,7,1.23,7.68,5.65A9.44,9.44,0,0,1,910.49,1215.16Z"/><path class="cls-1" d="M1134.36,1365.61c4.06-.53,7,.7,8.15,5C1138.89,1370.41,1136.59,1368.06,1134.36,1365.61Z"/><path class="cls-1" d="M1128.36,1361.46l2.07,1.21Z"/><path class="cls-1" d="M922.3,1223.54l1.78,1.35Z"/><path class="cls-2" d="M278.34,244.4c4.51,6.44,5.34,14.23,7.49,21.46,6,20.2,10.19,41,17.28,60.79s12.71,39.81,19.39,59.6a2.73,2.73,0,0,0,2.66,2c3.18-1.81,3.34-5.65,4.34-9Q359.85,279.4,390,179.45c1.62-5.4,4.09-8.54,9.62-10a219,219,0,0,1,87.17-5.16c39.13,5.55,62.31,39.39,65.42,72.13,2.51,26.39-2.88,50.78-21.13,71.28-17.05,19.15-38.17,29.41-63.8,30.85-30.45,1.72-54.18-10.75-73.23-33.65a32.17,32.17,0,0,0-2.8-2.8c-.21-.2-.6-.22-1.76-.6-2.56,6-6,11.52-7.17,18.46-1.22,7.16-4.07,14-6.38,21-13.55,40.78-27.64,81.38-43.59,121.3a112.65,112.65,0,0,1-5,10.89c-1.78,3.35-4,3.1-5.95,0-4.46-7.11-7.22-15-9.92-22.85-16.49-48.21-34-96.07-49-144.8a40.17,40.17,0,0,0-1.75-4c-3.5.58-5,3.29-6.83,5.41a93.44,93.44,0,0,1-28,22.26C170.16,357.65,106.7,317.72,99.6,262.23c-2.48-19.35-.16-37.73,8.12-55.49,13-27.83,35.31-41.87,65.2-44.08a254.24,254.24,0,0,1,59.77,2.6c7.15,1.17,13.26,5.65,20.74,5.43,2.44-.08,4.15,1.79,4.9,4.32,6.07,20.42,12.19,40.82,18.21,61.26.25.85-.28,1.94-.45,2.91-2,0-4.87-1.49-5.12,2.08-.19,2.91,2.08,3.5,4.55,3.33Zm242.41,1.4C520.53,215.61,495.2,191,465,190.65c-29.78-.3-54.57,29.21-54,55.51.33,15.77,6.07,27.83,17.21,38.33,10.64,10,22.76,16.11,37.52,16C495.66,300.25,521,275,520.75,245.8Zm-282.07,1c.18-30-24.56-55.64-53.8-55.81-29.66-.17-53.94,24.71-53.95,55.29,0,28.9,24.48,54,53,54.36S238.52,275.45,238.68,246.77Zm26.21,14.93a1.58,1.58,0,0,0,2,1.32,1.91,1.91,0,0,0,1.08-1.34,1.48,1.48,0,0,0-1.54-1.78C265.43,259.92,264.93,260.67,264.89,261.7ZM112.65,231.19c0-.26.1-.62,0-.74-.56-.52-1-.36-1.1.4a.75.75,0,0,0,.42.57C112.16,231.47,112.43,231.27,112.65,231.19Z"/><path class="cls-3" d="M278.34,244.4l-2.82.19c-2.47.17-4.74-.42-4.55-3.33.25-3.57,3.12-2.07,5.12-2.08C276.83,240.93,278.7,242.18,278.34,244.4Z"/><path class="cls-4" d="M566.64,812.7A15.12,15.12,0,0,1,563.3,800,28.18,28.18,0,0,1,566.64,812.7Z"/><path class="cls-4" d="M588.74,862.77a6.82,6.82,0,0,1-3.46-7.23C587,857.68,588.57,859.89,588.74,862.77Z"/><path class="cls-4" d="M560.8,788.87a4.78,4.78,0,0,1-.76-5.79A8.26,8.26,0,0,1,560.8,788.87Z"/><path class="cls-4" d="M592.45,868.74c-2-1.62-3.58-3.5-3.8-6.22C590.42,864.28,592.34,866,592.45,868.74Z"/><path class="cls-4" d="M558.8,777a2.9,2.9,0,0,1-.3-4A4.73,4.73,0,0,1,558.8,777Z"/><path class="cls-1" d="M942.94,1191.67a2.44,2.44,0,0,1-2.67-2.14A3.37,3.37,0,0,1,942.94,1191.67Z"/><path class="cls-4" d="M580.81,847.2a4.1,4.1,0,0,1-1.78-3.29A3.66,3.66,0,0,1,580.81,847.2Z"/><path class="cls-4" d="M576.74,838.65a5.82,5.82,0,0,1-2-4.18A5.42,5.42,0,0,1,576.74,838.65Z"/><path class="cls-4" d="M577.87,840.72l-1.16-2.11Z"/><path class="cls-1" d="M836.34,1112.55l-1.78-1.37Z"/><path class="cls-1" d="M938.34,1188.49l-1.74-1.29Z"/><path class="cls-4" d="M557.57,760.31a1.68,1.68,0,0,1-.5-1.51A1.13,1.13,0,0,1,557.57,760.31Z"/><path class="cls-4" d="M542.48,860.92a7.57,7.57,0,0,1-4.46,6.65l-.08-.14c.33-3,1.5-5.38,4.44-6.61Z"/><path class="cls-3" d="M540.51,619.61c-.72-.06-1.06-.46-.86-1.17a.92.92,0,0,1,.69-.44c.71,0,1,.44.86,1.15C541.14,619.35,540.75,619.46,540.51,619.61Z"/><path class="cls-4" d="M542.38,860.82l1.61-2.05c1.2,1.91-.92,1.5-1.51,2.15Z"/><path class="cls-2" d="M600.65,889.16a3.24,3.24,0,0,1-3.92,2.28,3.32,3.32,0,0,1-2.86-3.53,2.16,2.16,0,0,1,2.69-2.16C598.59,886,600.53,886.59,600.65,889.16Z"/><path class="cls-3" d="M264.89,261.7c0-1,.54-1.78,1.58-1.8a1.48,1.48,0,0,1,1.54,1.78,1.91,1.91,0,0,1-1.08,1.34A1.58,1.58,0,0,1,264.89,261.7Z"/><path class="cls-3" d="M112.65,231.19c-.22.08-.49.28-.7.23a.75.75,0,0,1-.42-.57c.1-.76.54-.92,1.1-.4C112.75,230.57,112.65,230.93,112.65,231.19Z"/><path class="cls-2" d="M464.67,286.05a39.45,39.45,0,0,1-39.24-39.54c-.07-23.34,17.23-41.48,39.53-41.46,23.87,0,42,18.19,41.5,41.72C506,268.32,488,287.21,464.67,286.05Zm7.23-35.94c-.21-1.4-1-1.87-2-1.6a1.89,1.89,0,0,0-1.05,1.33,1.53,1.53,0,1,0,3,.27Z"/><path class="cls-2" d="M183.76,286.1c-23.23-.24-40.46-17.66-40.2-40.63.27-23.63,17.7-40.65,41.49-40.51,22.39.13,39.37,18.19,39.22,41.72A39.86,39.86,0,0,1,183.76,286.1Z"/><path class="cls-3" d="M471.9,250.11a1.53,1.53,0,1,1-3-.27,1.89,1.89,0,0,1,1.05-1.33C470.91,248.24,471.69,248.71,471.9,250.11Z"/></g></g></svg>