<svg xmlns="http://www.w3.org/2000/svg" viewBox="0 0 1374.25 1701.33"><defs><style>.cls-1{fill:#380a44;}.cls-2{fill:#46749e;}.cls-3{fill:#499dce;}.cls-4{fill:#462b93;}</style></defs><g id="Capa_2" data-name="Capa 2"><g id="Capa_1-2" data-name="Capa 1"><g id="Capa_2-2" data-name="Capa 2"><g id="Capa_1-2-2" data-name="Capa 1-2"><path class="cls-1" d="M551.22,1382.51c5.06,12,19.83,18.48,32.17,14.28,2.45-.84,4-2.33,4.22-4.93.22-2.94.36-5.94.36-8.94q0-61.23.12-122.46c0-4-.62-8,1.1-11.78,1.34,4.91.9,9.91.9,14.91q.09,57.48.09,114.93,0,4,.07,8c.06,3.61,2,5.53,5.52,5.74,2.34.19,4.67.19,7,.19q59,.06,117.92,0c10.87,0,11.2-.43,14.32-11.08,1.36-4.68,1.21-10.14,6.29-13a25.45,25.45,0,0,0-.07,4c.49,3.84-4.47,8.08-.69,11.07s9.39,3.39,14.22,2.88c6.14-.64,12-3.36,18.46-2.36,2.82.44,4.74-2.13,6-4.56,2.29-4.38,4.65-8.75,6.65-13.27,1.34-3.07,2.42-6.18,6-7.36-.93,6.69-3.91,12.68-6.31,18.88q-8.65,22.36-17.28,44.74c-3.72,9.71-3.7,9.65-13.54,9-12.29-.81-24.63-.39-36.9-2-6.62-.87-8,1.06-6.41,7.29a206.17,206.17,0,0,0,8.83,27.57q11.12,26.71,21.66,53.63,21.2,53.37,43.94,106.1c2.27,5.24,5.84,7.91,11.27,8.4,3.34.3,6.67.48,10,.48H991c16.5,0,17.09-1.22,10-16.22-21-44.25-44.11-87.4-66.89-130.73-7-13.24-14.55-26.2-22.48-38.9-6.18-9.89-15.68-13.77-27.38-12.39-13.21,1.55-26.45,2.86-39.68,4.27-4.89.52-8.52-.9-9.89-6.11-6.46-24.44-14.24-48.57-17.24-73.8,10.12,2.49,16.61-3.07,22.84-9.85a11.81,11.81,0,0,0,3.4-10.65,36.12,36.12,0,0,1,.52-13.78c4.46,12.65,4.81,26,7.26,39.11s4.14,26.27,6.45,39.36c1.54,8.73,2.62,9.68,11.29,7.48,18-4.6,35.88-9.86,53.88-14.7,20.87-5.61,41.39-12.48,62.87-15.7,5.15-.77,10-3.24,15.07-4.93s5-5.59,4.24-9.77c-2.34-13.09-4.95-26.14-6.95-39.29-1.67-11.15-5.19-22.07-4.48-33.54,6.5-.08,12.9-2.09,19.55-.37,3.58.93,6.21-1.49,7.79-4.71,1.14-2.33,1.46-5.1,3.64-6.88,1.75,3,2.11,6.32,2.63,9.57,2.93,18.41,5.72,36.84,8.55,55.27,1.62,10.5,4.27,20.83,4.09,31.63a19.63,19.63,0,0,1-8,16.28,37.27,37.27,0,0,1-10.54,5.57c-9.07,3.29-18.07,6.52-27.17,9.93s-10.13,5.62-7.39,15.11a65.84,65.84,0,0,0,5.81,13.76q33.28,60.33,66.64,120.63c12.41,22.42,25.11,44.68,37.35,67.19,3,5.41,6.73,7.54,12.73,7.41,13.68-.29,27.34-.16,41-.16,6,.07,12-.77,17.86,1.07-4.63,3.43-6.7,7.32-5.1,13.59,1.55,6.1,1.6,12.61-2.85,18.1-2.93,3.57-1.89,7.43-1,11.43,2.81,12.56,2.25,13.31-10.19,16.07a26.84,26.84,0,0,0-3.36,1.42c3.13,3,6.57,2,9.62,2.09,4.67.2,9.34.09,14,.14,3.39,0,6.75.2,8.56,3.82-19.95,1.23-39.95.32-59.95.32q-292.4-.09-584.77-.21c-3,0-6,0-9-.1-4.48-.07-6.06-2.2-4.48-6.44q10.46-28.08,20.87-56.2c1.35-3.63,4.07-5.12,7.74-5.12,2.67-.07,5.33-.07,8-.07q66,0,132-.07c13.59,0,14.63-1,9.86-13.44-14.85-38.56-26.34-78.29-41-116.91-8.63-22.73-17.72-45.29-26.27-68.06-2.12-5.57-5.34-7.66-11.12-7.83-14-.39-27.88-2.16-41.88-2.16-5.3,0-10.6-1-15.91-1.51-2.81-.26-5.46-1-6-4.18-2.28-13.43-7.36-26.3-7.8-40.08A7.84,7.84,0,0,1,551.22,1382.51Zm118.16,23.34a2.56,2.56,0,0,0,2,2.58c1.95.53,3.06-.71,3.14-2.47h0a2.43,2.43,0,0,0-2.38-2.48c-1.42-.13-2.43.59-2.73,2.33ZM1041.52,1615s0,.1,0,.15a1.69,1.69,0,0,0,1.88,1.47h.08a1.77,1.77,0,0,0,1.54-2c-.08-1-.93-1.46-2.49-1.46C1041.93,1613.22,1041.36,1613.9,1041.52,1615Z"/><path class="cls-2" d="M1358.19,198c3.62,35.8,3.87,71.63,2.07,107.56a820.2,820.2,0,0,1-15.71,121.53,1258.81,1258.81,0,0,1-49.17,176.69c-4.62,12.76-8.27,26-15,37.9-4.89-4.91-9.6-8.92-17.79-7.81-8.74,1.19-9,.08-10-9.92-.15-1.45-1.31-2.16-2.47-2.8-.15-3.83,1.9-7,3.18-10.38q20.57-54.63,37.19-110.59c.64-2.19,1.61-4.34,1.07-7.43-4.33,1.76-5.76,5.64-8,8.55Q1227.61,574,1141.28,605.33c-21.12,7.59-43.15,10.87-65.5,12.45-40.23,2.84-79.78-.44-118.38-12.6-8.18-2.58-16.53-5-23.81-9.83-4.91-10.66-6.57-21.23.9-31.53l.58.15-.12.59c5.21,2.88,10.39,5.84,16.73,4.43,9.07,0,17.71,2.8,26.44,4.62,58.41,12.21,116.07,7.94,172.41-9.92,50-15.85,90-46.43,120.17-89.71a282.09,282.09,0,0,0,41.52-87.92,1.41,1.41,0,0,0,.44-1.61l1-2.59h.45l-.36-.21.72-5.7a1.08,1.08,0,0,0,.25-1.42c7.43-36.08,9.62-72.64,8.09-109.3C1320.34,206,1309,148.31,1287.6,92.81c-3.95-10.23-8.5-20.26-13.18-30.18-3.52-7.45-4-7.4-11-2.65-14.36,9.72-28.86,19.21-42.9,29.37-6.19,4.5-11.66,5.92-19.26,3.5-37-11.77-75.22-17.72-113.67-20.91-55.76-4.67-111.2-1-165.2,15-10.82,3.19-21.34,7.54-31.77,11.93-4.82,2-8.57,1.72-13-.84-21.68-12.43-43.52-24.55-65.33-36.68-7.66-4.26-7.75-4.17-11.34,4.12C777.73,119,762.38,174.75,756.51,232.75a467.49,467.49,0,0,0,1,107.58c.44,3.61,1.19,7.24.44,10.92l.2.89a7.79,7.79,0,0,1,1.36,7c-6.86-3.11-12.76-1.42-17.86,3.71-1.64,1.65-3.18,4-5.38,4.1-8.24.35-7.62,6-7.52,11.56a59.44,59.44,0,0,1-2.33-6.52c-8.32-35.09-13.7-70.45-12-106.76,1.06-22.63,2.43-45.17,5.52-67.63C723,174.9,729.56,153,735,130.9c7.08-28.69,20.35-55.08,31.15-82.37C771.92,34,779.44,20.2,787.44,6.73c3.4-5.8,3.51-5.87,9-2.62,2,1.18,3.88,2.59,5.82,3.87,25.65,16.77,51.35,33.46,76.81,50.51,5,3.37,9.13,3.66,14.66,1.24a268.25,268.25,0,0,1,29.93-11.15c47.08-14.17,95.35-18.81,144.22-15.72,38,2.4,75.3,9.49,111.06,23.07,7,2.64,12.22,2.1,18.42-2.24,23.75-16.6,47.89-32.66,71.89-48.85C1279.32-1.92,1280-2,1288.32,7.08A196.8,196.8,0,0,1,1322,56.38c12.12,25.74,20,52.87,26.78,80.39a354.31,354.31,0,0,1,9.32,61.1ZM1181.26,570.77a3.12,3.12,0,0,0,3.08,3.15c2.8.27,4.34-1.22,4.34-4a2.09,2.09,0,0,0,0-.25,3,3,0,0,0-3-3c-2.77-.15-4.12,1.53-4.47,4ZM1336.1,159.62c1.87-.1,3.09-1.12,3.14-2.93.1-2.35-1.38-3.6-3.64-3.35l-.36,0a2.87,2.87,0,0,0-2.35,3.31.66.66,0,0,0,0,.14,3,3,0,0,0,3.18,2.8ZM873.36,73.13a2.81,2.81,0,0,0,2.9,2.71,1.73,1.73,0,0,0,.32,0,2.31,2.31,0,0,0,2.35-2.27,3.08,3.08,0,0,0,0-.61,2.74,2.74,0,0,0-2.89-2.56,2.5,2.5,0,0,0-2.69,2.25A2.26,2.26,0,0,0,873.36,73.13Z"/><path class="cls-3" d="M770.65,400.64c28.41,77.13,80,131.51,157.41,160.59,2.18.82,4.31,1.75,6.46,2.63-7.47,10.3-5.81,20.87-.9,31.53-45-17.91-85-43.54-119.55-77.54-.71-.69-1.55-1.25-2.33-1.87L800.26,504.6a13.66,13.66,0,0,0-1.31-1.08c-.11-.07-.42.14-.63.21.42,1.07,1.28.82,2.12.71-1.42,2.79.3,4.93,1.58,7.11,3,5.14,6.16,10.24,9.24,15.36l.43.73c1.45,4.36,3.09,8.58,6.26,12,6.95,15.46,15.32,30.29,20.32,46.6a5,5,0,0,0,1.68,4.82.75.75,0,0,1,.42.94c-1.06,4.9-.06,9.79.39,14.7-2.78.95-5.29,1.65-7.69,2.65-6.11,2.48-9.73,6.69-9.23,13.69.47,6-1.61,10.75-6,15-7.6,7.38-7.67,7.57-16,1-1.59-2.24-2.05-4.83-2.39-7.47A10.08,10.08,0,0,0,795.77,621a1,1,0,0,1-.44-1.14,8.74,8.74,0,0,0-3.39-8.9,1.34,1.34,0,0,1-.5-1.28,3,3,0,0,0-1.28-2.74l-1.32-2.75c.23-7.93-3.38-14.06-9-19.25a1,1,0,0,1-.61-.95,6.48,6.48,0,0,0-3.47-6.92,1.16,1.16,0,0,1-.63-1.07l-1.44-2.86a1.24,1.24,0,0,1-.72-1c.57-3.58-.86-6-4.22-7.31L767.22,562c.14-2.43-.77-4.2-3.12-5.1a1.23,1.23,0,0,1-.71-1.06L761.65,553a.91.91,0,0,1-.59-.9,3.27,3.27,0,0,0-1.74-2.72l.08.09-1.82-2.28h0a4.14,4.14,0,0,0-2.41-3.69l.57-.45-.54.49-1.82-2.28v.05c-.52-7.46-5-11.73-11.65-14.19l-1.71-1c-6.21-2.71-10,1.54-14.1,4.92a1.71,1.71,0,0,1-1.38.53,11.85,11.85,0,0,0-8.48,3.28h.06c-6.34,1.11-12.15,2.77-16.27,8h-.14a6.34,6.34,0,0,0-5.61,2.55h0a4.64,4.64,0,0,0-4,2.06c-64.76,31.47-126.57,67.91-186.76,107.22a591.34,591.34,0,0,0-95.5,77.83c-31.49,31.6-62.09,63.91-90.09,98.6a2.42,2.42,0,0,0-1.74,2.15c-.57.74-1.15,1.48-1.72,2.23a2.51,2.51,0,0,0-1.78,2.2,3.38,3.38,0,0,0-2.62,3.29l-.14.16a1.87,1.87,0,0,0-1.37,2.17v.09a2.16,2.16,0,0,0-1.63,2.17l-.28.28A3.11,3.11,0,0,0,304,849l-.13.18c-7.27-.17-10.26-6.57-14.8-10.57-2.29-2-.82-5.56,0-8.47,2.49-8.75,2.43-8.75-6.77-12.75-.28-.24-.55-.48-.82-.74.78-3.41,2.25-6.76,1.54-10.41a955.62,955.62,0,0,1,64.26-75c47.51-50.43,98.87-96.6,154.87-137.43A1196.52,1196.52,0,0,1,686.85,483.06c19.73-9.55,39.73-18.7,59.73-27.79,4.47-2,6.41-4.14,3.78-9-1.41-2.58-2-5.61-2.93-8.44a5.79,5.79,0,0,0-2.07-5.19,9.65,9.65,0,0,1-1.66-7.33s.07-.1.11-.15a1.3,1.3,0,0,0-.45-1.77c-1.69-.89-2-2.35-1.69-4.06a2,2,0,0,0-1-2.49c-2.67-2.34-2.69-5.73-3.51-8.8a4.94,4.94,0,0,0-1.45-5.29q-.88-3-1.75-6a.86.86,0,0,0,.13-.2,1,1,0,0,0-.45-1.34,17.38,17.38,0,0,1-2.13-7.38l-1.17-3c-.53-2.06-1-4.12-1.55-6.2-.1-5.56-.72-11.21,7.52-11.56,2.2-.1,3.74-2.45,5.38-4.1,5.1-5.13,11-6.82,17.86-3.71C763.07,373.15,765.66,387.25,770.65,400.64Z"/><path class="cls-4" d="M749,1339.05c12-35.65,21.78-72,35-107.29,2.92-7.78,6-15.53,9.55-23.06,6.76-14.45,16.86-26.15,29.43-36,36.43-28.53,73.84-55.91,108.24-86.91,35.15-31.71,67.32-66.41,98.32-102.13,42.92-49.39,80.47-102.69,115.11-158.1,8.64-13.81,17.2-27.66,25.8-41.49,2.18.63,4.87.66,6.46,2,9.3,7.82,21.12,9.37,32,13.37-5.46,12.94-12.76,24.88-19.67,37-20.94,36.71-44.28,72-68.54,106.6-12.8,18.25-26.4,36-41.42,52.42-16.49,17.84-33.06,35.61-48.37,54.46-12.67,15.59-20.32,33.3-20.9,53.89-.41,14.66-.5,29.3.5,43.9,1.4,20.58,3.25,41.13,4.91,61.69-1.43.54-3.3.64-3.49,2.64-.24,2.56,2,2.82,3.66,3.56,4,18.25,5.29,36.89,8,55.33a1.59,1.59,0,0,0,.25,2.19l1.2,7.84c-2.18,1.78-2.5,4.55-3.64,6.88-1.58,3.22-4.21,5.64-7.79,4.71-6.65-1.72-13.05.29-19.55.37q-1.34-8.78-2.66-17.57l-.92-2.48c-3-24.74-6-49.49-9.09-74.23q-4.47-35.61-9.27-71.2c-.37-2.75,1-6.75-2.66-7.75-3-.79-5.35,2.2-7.59,4.14q-22.55,19.67-45.13,39.28c-26.6,23.12-53.05,46.41-80,69.18-5.85,5-7.76,9.54-6.26,17.1,5,25.09,9.32,50.33,13.89,75.51a36.32,36.32,0,0,0-.51,13.78,11.81,11.81,0,0,1-3.4,10.65c-6.23,6.78-12.72,12.34-22.84,9.85a10.52,10.52,0,0,1-.43-1.58l-.9-2.83a266,266,0,0,0-8-28.5c-7.14,7.54-8.72,15.8-12.27,23-3.17,1.11-3.91,3.35-2.91,6.35l-1.29,3.42c-3.56,1.18-4.64,4.29-6,7.36-2,4.52-4.36,8.89-6.65,13.27-1.3,2.43-3.22,5-6,4.56-6.46-1-12.32,1.72-18.46,2.36-4.83.51-10.5.06-14.22-2.88s1.18-7.23.69-11.07a25.45,25.45,0,0,1,.07-4C740.57,1358,745.68,1348.59,749,1339.05Z"/><path class="cls-1" d="M72.41,1318.18c2.47.81,4.55-.41,6-2.52,1.31-1.9,2.54-3.9,4.94-4.65-2.44,12.12-7.54,23.4-11.38,35.06-7.62,23.07-15.44,46.07-21.71,69.56-.6,2.12-2.6,4.52,0,6.29,1.89,1.28,3.73-.55,5.47-1.43,29.78-14.9,58.5-31.74,87.72-47.66,12.52-6.82,24.28-14.87,36.89-21.48,1.77-1,3.44-2.07,5.55-2-1.21,4.72-5.75,6.18-8.89,9-1.57,1.4-2.8,3-2.17,5.16.7,2.42,2.41,4.28,4.95,4.28,10.55.13,19.42,5.5,28.86,9,2.41.94,4.39,1.22,6.59,0a11.41,11.41,0,0,1,8.66-1.18c-5,6.14-12.28,9-18.64,13.14-4.09,2.65-7.5,5.53-9.33,10-12,29.25-24.45,58.35-33.34,88.75-3.81,13.22-3.16,14.08,10.19,18.22,39.82,12.36,80.19,15.32,121.35,7.78,28.1-5.15,51.88-17.76,72.27-37.76,16.47-16.13,30.06-34.73,46-51.27,9.22-9.59,18-19.65,27-29.43.84-.94,2.25-1.3,3.38-1.94,5,2.16,9.7,7.37,15.56,1.23,1.32-1.39,3.74-.78,5.55.16a11.65,11.65,0,0,0,8.44,1.43l3-.42c2.92,6.82,4.3,7.35,9.08,2.63,2.62-2.58,4.84-5.36,8.9-5.36-3.35,6.62-8.78,11.63-13.41,17.26-13.78,16.7-28.79,32.34-42,49.53-12.36,16.1-23.9,32.84-37,48.4-30,35.75-67.9,54.91-115,54.75-19-.07-37.9,0-56.9-1.67-29.32-2.65-58.1-7.65-86-17.13-9.74-3.31-19.54-6.64-28.27-12.46-5.32-3.55-7.5-8-7-14.37s2.37-12.41,4.07-18.5c5.31-18.9,12-37.44,18.76-55.9a60.88,60.88,0,0,0,2.7-8.57c.56-3-.79-4.52-4-3.52a23.66,23.66,0,0,0-3.58,1.74c-27.3,14.65-54.51,29.44-81.9,43.9-11.78,6.22-23.86,11.88-35.93,17.52-6.21,2.91-7.34,2.06-7.8-4.94-.09-2,0-4,0-6,.19-18.3-.29-36.59,1.59-54.89,1.26-12.64,2.7-25.16,6.26-37.36,3.91-13.43,7.74-26.9,12.13-40.18,4.78-14.51,7.75-29.66,14.88-43.36C46.08,1315.27,60.07,1314.15,72.41,1318.18ZM236.83,1555.9c.83-.06,1.63-.88,1.49-2.32v-.14a1.73,1.73,0,0,0-1.84-1.6h-.29a2.16,2.16,0,0,0-1.92,2.38c.08,1,.85,1.67,2.56,1.67Z"/><path class="cls-4" d="M36,1304.81a3.05,3.05,0,0,0,.8-3.79c3.24-9.8,6.33-19.64,9.74-29.38C68,1210,91.22,1149.06,116.65,1089c20.24-47.86,41.18-95.43,67.24-140.43,9.15-15.81,17.75-32,29.22-46.38-.93,7.5-5.2,13.5-9.2,19.5-1.07,1.65-2.07,3.36-3.07,5.08-5.59,9.83-4.29,13.78,6.71,13.4,10.64-.37,20.92.84,31.33,1.93,1.59.17,3.26-.44,4.89-.69-5.35,12.6-13,23.88-19.57,35.88-35.2,64.44-64,131.76-91.2,199.84-17.07,42.69-32.61,85.94-48.27,129.16-.57,1.55-.88,3.2-1.31,4.81-2.4.76-3.63,2.76-4.94,4.66-1.49,2.11-3.57,3.33-6,2.52-12.41-4.13-26.4-3-37.58-11.21Z"/><path class="cls-4" d="M1338.13,1633.56c6,0,8.88,2.39,11.18,7.65,7.2,16.43,14.87,32.67,22.34,49a59.08,59.08,0,0,1,2.27,5.54c.93,2.81-.09,4.56-3.15,4.75-2,.08-4,.08-6,.08-26.62-.06-53.24-.19-79.86-.19-35.6.07-71.19.31-106.79.48-1.81-3.62-5.17-3.82-8.56-3.82-4.68,0-9.35.06-14-.14-3-.09-6.49.91-9.62-2.09a25.43,25.43,0,0,1,3.36-1.42c12.44-2.76,13-3.51,10.19-16.07-.85-4-1.89-7.86,1-11.43,4.45-5.49,4.4-12,2.85-18.1-1.6-6.27.47-10.16,5.1-13.59C1225,1634,1281.58,1633.91,1338.13,1633.56Z"/><path class="cls-4" d="M473.4,1392.26c-2.15.3-1.36,2.24-1,3.68a11.89,11.89,0,0,1-8.45-1.43c-1.81-.94-4.23-1.55-5.55-.16-5.86,6.14-10.56.93-15.56-1.23q58.28-62.32,117.83-123.46c8.58-8.81,16.87-17.87,25.29-26.87l3.12.66c0,1.83.1,3.66.1,5.49-1.72,3.79-1.1,7.79-1.1,11.79q0,61.23-.12,122.46c0,2.94-.14,5.94-.36,8.94-.22,2.6-1.77,4.09-4.22,4.93-12.34,4.2-27.11-2.28-32.17-14.28a7.82,7.82,0,0,0-2.83-4c-1.75-8.07-3.37-16.19-5.31-24.19-1.48-6.11-3.26-6.68-7.82-2.68-1.49,1.29-2.8,2.8-4.22,4.19l-37.64,36.62c-4.06,0-6.28,2.78-8.9,5.36-4.78,4.72-6.16,4.19-9.08-2.63C475.48,1393.93,475.55,1392,473.4,1392.26Z"/><path class="cls-2" d="M214,900.73l1.24-1.68c.43-.75.95-1.5,1.43-2.25,4.71-1.68,6.08-5.62,6.81-10l.06-.07,1.59-2.29c7.19-12.75,16.13-24.34,24.85-36,10.69-14.31,20.64-29.26,33.13-42.17.71,3.65-.76,7-1.54,10.41-1.47.72-2.95,1.46-2.71,3.46,0,.38.89,1.07,1.23,1,2-.43,1.93-2.25,2.3-3.75,9.2,4,9.26,4,6.77,12.75-.8,2.91-2.27,6.47,0,8.47,4.54,4,7.53,10.4,14.8,10.57-7.06,12.85-16.72,23.94-24.54,36.28q-10.51,16.41-21,32.81l-1.28,1.55-2.56,3.62a4.35,4.35,0,0,0-2.27,3.61l-2.66,4.34c-5.32,1.08-5.74,5-5.53,9.38l-.34.6c-1.63.25-3.3.86-4.89.69-10.41-1.09-20.69-2.3-31.33-1.93-11,.38-12.3-3.57-6.71-13.4,1-1.72,2-3.43,3.07-5.08,4-6,8.27-12,9.2-19.5A2.22,2.22,0,0,1,214,900.73Z"/><path class="cls-3" d="M1249.73,715.07a3.2,3.2,0,0,0-1.53,2.8l0,.07a.62.62,0,0,1-.31.82c-6.75.38-14.09-1-18.22,6.78-.41.81-2.59,1.39-3.59,1-6.45-2.57-14.72-1.86-18.29-9.8,10-22.12,20.08-44.2,30-66.36,4.34-9.61,8.24-19.38,12.34-29.08,1.16.64,2.32,1.35,2.47,2.8,1,10,1.23,11.11,10,9.92,8.19-1.11,12.9,2.9,17.79,7.81A781.09,781.09,0,0,1,1249.73,715.07Z"/><path class="cls-2" d="M1247.11,722.63c-12.33,25.86-24.36,51.8-38.23,76.86-10.85-4-22.67-5.55-32-13.37-1.59-1.33-4.28-1.36-6.46-2,11.9-21.29,24.16-42.41,35-64.29a18.9,18.9,0,0,1,2.36-3.06c3.57,7.94,11.84,7.23,18.29,9.8,1,.36,3.18-.22,3.59-1,4.13-7.73,11.47-6.4,18.22-6.78A16.15,16.15,0,0,1,1247.11,722.63Z"/><path class="cls-3" d="M1015.43,1215.59c-1.66-.74-3.9-1-3.66-3.56.19-2,2.06-2.1,3.49-2.64A7.46,7.46,0,0,1,1015.43,1215.59Z"/><path class="cls-4" d="M223.38,886.76c-.73,4.39-2.1,8.33-6.81,10C217.84,892.75,220.42,889.63,223.38,886.76Z"/><path class="cls-2" d="M745.38,432.64a5.79,5.79,0,0,1,2.07,5.19C745.59,436.57,745.26,434.7,745.38,432.64Z"/><path class="cls-2" d="M735.71,402.75a4.94,4.94,0,0,1,1.45,5.29C735.6,406.57,735.46,404.71,735.71,402.75Z"/><path class="cls-1" d="M36.72,1301a3,3,0,0,1-.8,3.79A4.62,4.62,0,0,1,36.72,1301Z"/><path class="cls-2" d="M743.38,423.39l.15.11a1.29,1.29,0,0,1,.19,1.81C743.61,424.67,743.49,424,743.38,423.39Z"/><path class="cls-2" d="M740.69,416.84a2,2,0,0,1,1,2.49Z"/><path class="cls-4" d="M225,884.41l-1.59,2.29A2.53,2.53,0,0,1,225,884.41Z"/><path class="cls-4" d="M215.14,899l-1.24,1.68A1.54,1.54,0,0,1,215.14,899Z"/><path class="cls-4" d="M1358.69,198l-.31.12V198Z"/><path class="cls-2" d="M730.34,384.84l1.17,3A2.69,2.69,0,0,1,730.34,384.84Z"/><path class="cls-2" d="M1248.15,718a3.2,3.2,0,0,1,1.53-2.8A2.55,2.55,0,0,1,1248.15,718Z"/><path class="cls-1" d="M1023.75,1273.11a1.59,1.59,0,0,1-.25-2.19C1023.58,1271.65,1023.66,1272.38,1023.75,1273.11Z"/><path class="cls-2" d="M733.76,396.63a1,1,0,0,1-.12-1.41,1.37,1.37,0,0,1,.2.13,1,1,0,0,1,.12,1.41A.86.86,0,0,1,733.76,396.63Z"/><path class="cls-2" d="M672.6,1403.52h0A2.43,2.43,0,0,1,675,1406c-.08,1.76-1.14,3-3.14,2.47a2.55,2.55,0,0,1-2-2.62C670.14,1404.15,671.15,1403.39,672.6,1403.52Z"/><path class="cls-2" d="M1045.05,1614.63s0,.06,0,.08a1.78,1.78,0,0,1-1.63,1.92h-.14a1.68,1.68,0,0,1-1.75-1.63c-.18-1.1.39-1.78,1-1.86C1044.1,1613.09,1045,1613.57,1045.05,1614.63Z"/><path class="cls-3" d="M1185.73,566.66l.25,0a3,3,0,0,1,2.7,3.27c0,2.74-1.54,4.23-4.34,4h-.17a3.12,3.12,0,0,1-2.91-3.32C1181.63,568.15,1183,566.48,1185.73,566.66Z"/><path class="cls-3" d="M1336,159.63a3,3,0,0,1-3-2.95c0-.12,0-.24,0-.36a2.89,2.89,0,0,1,2.75-3c2.26-.25,3.74,1,3.64,3.35-.07,1.82-1.29,2.84-3.17,2.94Z"/><path class="cls-3" d="M876,70.43a3.12,3.12,0,0,1,.61,0,2.73,2.73,0,0,1,2.25,3.14,2.64,2.64,0,0,1,0,.28,2.31,2.31,0,0,1-2.61,2,2.13,2.13,0,0,1-.44,0,2.81,2.81,0,0,1-2.44-3.14A2.5,2.5,0,0,1,876,70.43Z"/><path class="cls-3" d="M935,564.71a60,60,0,0,1,16.7,4.44C945.34,570.53,940.16,567.57,935,564.71Z"/><path class="cls-3" d="M758,351.4l.21.9Z"/><path class="cls-4" d="M1314.47,376.13l0,0a1,1,0,0,1,.28-1.39A1.1,1.1,0,0,1,1314.47,376.13Z"/><path class="cls-4" d="M1314.11,381.86h-.45l.09-.24Z"/><path class="cls-4" d="M1312.2,386.26a1.32,1.32,0,0,1,.44-1.62A1.43,1.43,0,0,1,1312.2,386.26Z"/><path class="cls-2" d="M815.76,773.15l1-12.69a1.66,1.66,0,0,0,.5-1.51c.62-28.94-1.34-57.66-7.09-86.11-2.3-11.37-6.78-22.19-8.3-33.74,8.35,6.54,8.42,6.35,16-1,4.36-4.22,6.44-9,6-15-.5-7,3.12-11.21,9.23-13.69,2.4-1,4.91-1.7,7.69-2.65-.45-4.91-1.45-9.8-.39-14.69,2.21,1.83,2.57,4.57,3.39,7,10.62,32,17.93,64.6,20.93,98.21,3.44,38.59,4.15,77-6.77,114.69-5.57,19.14-11.57,38.15-21.57,55.57-.33-3-1.5-5.39-4.44-6.62l-1.61-2.05c-1.2,1.91.92,1.5,1.51,2.15a7.57,7.57,0,0,0,4.46,6.65A117.34,117.34,0,0,1,822,893c-7.86-1.05-15.63-2.33-22.15-7.39-1-.79-3-1.21-3.17-2.08-1.46-7.11-4.91-7.06-11.4-5.46s-4.16-4.55-4.09-8.1a1.35,1.35,0,0,1,.57-1c2-1.62,3.58-3.5,3.8-6.22l-.09.25a6.81,6.81,0,0,0,3.46-7.23,22.42,22.42,0,0,1,4.47-8.34,4.09,4.09,0,0,0,1.78-3.29c.38-1.06.77-2.12,1.16-3.19l1.16-2.11h0a5.8,5.8,0,0,0,2-4.18c1.37-7.77,6.38-14.15,8.1-21.77A15.12,15.12,0,0,0,811,800.19q1.24-5.58,2.5-11.16a4.78,4.78,0,0,0,.76-5.79c.41-2.06.83-4.09,1.24-6.09A2.9,2.9,0,0,0,815.76,773.15Zm18.85-154.56a.93.93,0,0,0-.69-.44c-.71,0-1,.44-.86,1.15.06.2.45.31.69.46C834.47,619.7,834.81,619.3,834.61,618.59Z"/><path class="cls-1" d="M802,511.64c-1.28-2.18-3-4.32-1.57-7.12l-.19.17,11.49,11.39c-2.15,3.56-.76,7.26-.49,10.92C808.15,521.88,805,516.78,802,511.64Z"/><path class="cls-2" d="M753.45,541.34a65.21,65.21,0,0,1-11.72-14.19C748.39,529.65,752.86,533.92,753.45,541.34Z"/><path class="cls-2" d="M788.79,604.21a86,86,0,0,1-9-19.25C785.41,590.15,789,596.28,788.79,604.21Z"/><path class="cls-2" d="M716.12,535.32c-4.87,3.71-10.45,5.9-16.27,7.59C704,537.57,709.78,535.88,716.12,535.32Z"/><path class="cls-2" d="M740,526.11c-4.83,1.25-9,4.48-14.1,4.92C730,527.65,733.81,523.4,740,526.11Z"/><path class="cls-1" d="M811.65,527.7a16,16,0,0,1,6.27,12C814.75,536.28,813.11,532.06,811.65,527.7Z"/><path class="cls-2" d="M772.92,572.12a12.66,12.66,0,0,1-4.22-7.31C772.06,566.15,773.49,568.54,772.92,572.12Z"/><path class="cls-2" d="M799.41,631.63A18.38,18.38,0,0,1,795.73,621,10.08,10.08,0,0,1,799.41,631.63Z"/><path class="cls-2" d="M795.29,619.88a11.7,11.7,0,0,1-3.39-8.9A8.74,8.74,0,0,1,795.29,619.88Z"/><path class="cls-2" d="M724.54,531.56a11.7,11.7,0,0,1-8.48,3.8A10.45,10.45,0,0,1,724.54,531.56Z"/><path class="cls-2" d="M779.18,584a9.25,9.25,0,0,1-3.47-6.92A6.48,6.48,0,0,1,779.18,584Z"/><path class="cls-1" d="M800.44,504.53c-.84.11-1.7.36-2.12-.71.21-.07.52-.28.63-.21a13.66,13.66,0,0,1,1.31,1.08Z"/><path class="cls-2" d="M767.17,562a7.05,7.05,0,0,1-3.12-5.1C766.4,557.83,767.26,559.6,767.17,562Z"/><path class="cls-2" d="M699.72,543a7.14,7.14,0,0,1-5.62,2.44A6,6,0,0,1,699.72,543Z"/><path class="cls-2" d="M757.54,547.26a4.18,4.18,0,0,1-2.41-3.69A4.18,4.18,0,0,1,757.54,547.26Z"/><path class="cls-2" d="M838.24,586.33c1.73,1.2,2,2.91,1.68,4.82A5,5,0,0,1,838.24,586.33Z"/><path class="cls-2" d="M306.45,845.83A3.23,3.23,0,0,1,304,849,3.11,3.11,0,0,1,306.45,845.83Z"/><path class="cls-2" d="M694.13,545.38a4.18,4.18,0,0,1-4,2.06A4.64,4.64,0,0,1,694.13,545.38Z"/><path class="cls-2" d="M312.54,837.67a3.24,3.24,0,0,1-2.62,3.29A3.38,3.38,0,0,1,312.54,837.67Z"/><path class="cls-2" d="M755.16,543.61a2.36,2.36,0,0,1-1.75-2.28Z"/><path class="cls-2" d="M314.32,835.47a2.17,2.17,0,0,1-1.78,2.19A2.52,2.52,0,0,1,314.32,835.47Z"/><path class="cls-2" d="M309.78,841.12h0a1.9,1.9,0,0,1-1.59,2.16A2.27,2.27,0,0,1,309.78,841.12Z"/><path class="cls-2" d="M308.14,843.38a1.16,1.16,0,0,1,0,.18,1.74,1.74,0,0,1-1.45,2A2.24,2.24,0,0,1,308.14,843.38Z"/><path class="cls-2" d="M317.79,831.09a2,2,0,0,1-1.75,2.15A2.41,2.41,0,0,1,317.79,831.09Z"/><path class="cls-2" d="M775.08,576a2.85,2.85,0,0,1-1.44-2.86Z"/><path class="cls-2" d="M791.4,609.7a2.39,2.39,0,0,1-1.28-2.74A3,3,0,0,1,791.4,609.7Z"/><path class="cls-2" d="M763.34,555.87a2.82,2.82,0,0,1-1.74-2.82Z"/><path class="cls-2" d="M761,552.15a3.19,3.19,0,0,1-1.74-2.72A3.27,3.27,0,0,1,761,552.15Z"/><path class="cls-2" d="M759.35,549.52a2.28,2.28,0,0,1-1.82-2.28Z"/><path class="cls-1" d="M796,1349.23a10.85,10.85,0,0,1-2.91,6.35C792.08,1352.54,792.86,1350.34,796,1349.23Z"/><path class="cls-1" d="M817.16,1357.59c-.29-.94-.6-1.89-.9-2.83Z"/><path class="cls-1" d="M991.31,1275.34l-.92-2.48Z"/><path class="cls-4" d="M434,1189.66l1.93-1,1.74-1.29,6.42-4.51c11.68-3.59,22.65-1.28,33.45,3.67,3.59,1.65,6.13,3.73,6.78,7.73.37,2.32-.26,4.07-2.93,4-3.19-.08-6.7-2.1-9.44.61-3,2.89-2.38,7.36-3.81,11a12.57,12.57,0,0,0-.38,2.92l-4,2.57c-4.18-.35-7,1.23-7.68,5.65l-4.13,2.73-1.78,1.35q-61.05,43.46-123.63,84.66c-26.71,17.58-53.24,35.43-80.65,51.91l-2.07,1.21-3.93,2.94c-4.06-.51-7,.72-8.15,5l-7.8,4.87a11.4,11.4,0,0,0-8.66,1.18c-2.2,1.18-4.18.9-6.59,0-9.44-3.55-18.31-8.92-28.86-9-2.54,0-4.25-1.86-5-4.28-.63-2.16.6-3.76,2.17-5.16,3.14-2.8,7.68-4.26,8.89-9,62.31-37.21,124-75.49,184.31-115.94,20.46-13.73,40.72-27.77,61.06-41.66A2.44,2.44,0,0,0,434,1189.66Z"/><path class="cls-2" d="M234.27,1554.23a2.71,2.71,0,0,1,0-.29,2.16,2.16,0,0,1,2.22-2.1h.14a1.72,1.72,0,0,1,1.7,1.74c.14,1.44-.66,2.26-1.49,2.32C235.12,1555.86,234.35,1555.23,234.27,1554.23Z"/><path class="cls-3" d="M472.41,1395.92c-.36-1.44-1.11-3.38,1-3.68s2.07,1.69,2,3.26Z"/><path class="cls-1" d="M586,1242.77c1.4-1.49,2.51-1.61,3.12.66Z"/><path class="cls-4" d="M249.61,931.38a18.13,18.13,0,0,1-5.54,9.38C243.86,936.42,244.26,932.46,249.61,931.38Z"/><path class="cls-3" d="M282.29,817.36c-.37,1.5-.3,3.32-2.3,3.75-.34.1-1.23-.59-1.23-1-.29-2,1.24-2.74,2.71-3.46A8.85,8.85,0,0,0,282.29,817.36Z"/><path class="cls-4" d="M254.53,923.44a4.4,4.4,0,0,1-2.27,3.61A4.35,4.35,0,0,1,254.53,923.44Z"/><path class="cls-4" d="M258.35,918.26l-1.28,1.56Z"/><path class="cls-4" d="M817.77,900.77c-27.24,40.48-60.38,76-95.6,109.48q-37.53,35.84-77.59,68.83c-27.73,22.82-55.73,45.29-84.88,66.29-1.66-3.46-8.34-3.72-6-9.9.59-1.61-1.76-2.76-3.33-3-6.08-1-9.86-4.25-12.24-10-.92-2.08-3.92-3.35-5.92-5l5.71-4.77,1.78-1.37c27.81-21.73,53.39-45.95,79.81-69.23,30.17-26.58,61.37-52,89.06-81.33C727.3,941,745.8,921,761.39,898.5q9.87-14.34,19.85-28.61c-.07,3.55-2.31,9.64,4.09,8.1s9.94-1.65,11.4,5.46c.17.87,2.17,1.29,3.17,2.08,6.52,5.06,14.29,6.39,22.15,7.39C821.32,895.91,819.43,898.26,817.77,900.77Zm-44.16-11.46a3.24,3.24,0,0,0,3.92,2.28,3.31,3.31,0,0,0,2.86-3.53,2,2,0,0,0-.07-.59,2.16,2.16,0,0,0-2.62-1.57c-2,.25-4,.84-4.09,3.41Z"/><path class="cls-1" d="M555.79,1149.69q-36,26.52-72.22,52.85c-5.06,3.68-9.95,7.7-15.82,10.16a12.57,12.57,0,0,1,.38-2.92c1.43-3.62.81-8.09,3.81-11,2.74-2.71,6.25-.69,9.44-.61,2.67,0,3.3-1.73,2.93-4-.65-4-3.19-6.08-6.78-7.73-10.8-5-21.77-7.26-33.46-3.66,1.06-2.67,3.59-3.79,5.69-5.34,21.26-15.66,42.49-31.43,63.86-47,6.1-4.45,11.32-10.21,18.59-13,2,1.6,5,2.87,5.92,5,2.38,5.79,6.16,9.06,12.24,10,1.57.28,3.92,1.43,3.33,3-2.34,6.18,4.34,6.44,6,9.9A10.4,10.4,0,0,1,555.79,1149.69Z"/><path class="cls-1" d="M456.09,1221c.68-4.42,3.5-6,7.68-5.65A9.42,9.42,0,0,1,456.09,1221Z"/><path class="cls-1" d="M231.75,1370.76c1.15-4.3,4.09-5.53,8.15-5C237.67,1368.21,235.37,1370.56,231.75,1370.76Z"/><path class="cls-1" d="M243.83,1362.82l2.07-1.21Z"/><path class="cls-1" d="M450.18,1225l1.78-1.35Z"/><path class="cls-2" d="M1098.74,244.74c2.47.17,4.74-.42,4.55-3.33-.25-3.57-3.12-2.08-5.12-2.08-.17-1-.7-2.06-.45-2.91,6-20.44,12.14-40.84,18.21-61.26.75-2.53,2.46-4.4,4.9-4.32,7.48.22,13.59-4.26,20.74-5.43a254.47,254.47,0,0,1,59.77-2.6c29.89,2.21,52.2,16.25,65.2,44.08,8.28,17.76,10.6,36.14,8.12,55.49-7.1,55.49-70.56,95.42-126.3,66.94a93.19,93.19,0,0,1-28-22.26c-1.83-2.12-3.33-4.83-6.83-5.41a39.38,39.38,0,0,0-1.75,4c-15,48.73-32.51,96.59-49,144.8-2.7,7.85-5.46,15.74-9.92,22.85-1.95,3.1-4.17,3.35-5.95,0a111.51,111.51,0,0,1-5-10.89c-16-39.92-30-80.52-43.59-121.3-2.31-7-5.16-13.84-6.38-21-1.17-6.94-4.61-12.46-7.17-18.46-1.16.38-1.55.4-1.76.6a32.17,32.17,0,0,0-2.8,2.8C961.16,328,937.43,340.42,907,338.7c-25.63-1.44-46.75-11.7-63.8-30.85-18.25-20.5-23.64-44.89-21.13-71.28,3.11-32.74,26.29-66.58,65.42-72.13a219.06,219.06,0,0,1,87.17,5.16c5.53,1.46,8,4.6,9.62,10q30.15,100,60.5,199.8c1,3.35,1.16,7.19,4.34,9a2.71,2.71,0,0,0,2.66-2c6.68-19.79,12.3-39.81,19.39-59.6s11.28-40.59,17.28-60.79c2.15-7.23,3-15,7.49-21.46ZM853.51,246c-.25,29.2,25.09,54.45,55,54.69,14.76.11,26.88-6,37.52-16,11.14-10.5,16.88-22.56,17.21-38.33.57-26.3-24.22-55.81-54-55.51-30.2.35-55.53,25-55.75,55.15Zm281.87,1c.16,28.68,26.23,54.23,54.75,53.87s53-25.46,53-54.36c0-30.58-24.29-55.46-54-55.29-29.24.17-54,25.81-53.8,55.81Zm-26,14.93c0-1-.54-1.78-1.54-1.77a1.29,1.29,0,0,0-.39,0,1.48,1.48,0,0,0-1.15,1.75,1.91,1.91,0,0,0,1.08,1.34l.23.05a1.58,1.58,0,0,0,1.77-1.37Zm152.91-30.28a.74.74,0,0,0,.42-.57c-.1-.76-.54-.92-1.1-.4-.1.12,0,.48,0,.74C1261.83,231.42,1262.1,231.62,1262.29,231.57Z"/><path class="cls-3" d="M1098.17,239.33c2,0,4.87-1.49,5.12,2.08.19,2.91-2.08,3.5-4.55,3.33l-2.82-.19C1095.56,242.33,1097.43,241.08,1098.17,239.33Z"/><path class="cls-4" d="M811,800.15a15.11,15.11,0,0,1-3.34,12.7A28.2,28.2,0,0,1,811,800.15Z"/><path class="cls-4" d="M789,855.69a6.81,6.81,0,0,1-3.46,7.23C785.69,860,787.26,857.83,789,855.69Z"/><path class="cls-4" d="M814.22,783.23a4.78,4.78,0,0,1-.76,5.79A8.26,8.26,0,0,1,814.22,783.23Z"/><path class="cls-4" d="M785.61,862.67c-.22,2.72-1.8,4.6-3.8,6.22C781.92,866.15,783.84,864.43,785.61,862.67Z"/><path class="cls-4" d="M815.76,773.15a2.9,2.9,0,0,1-.3,4A4.72,4.72,0,0,1,815.76,773.15Z"/><path class="cls-1" d="M434,1189.68a2.44,2.44,0,0,1-2.67,2.14A3.39,3.39,0,0,1,434,1189.68Z"/><path class="cls-4" d="M795.23,844.06a4.09,4.09,0,0,1-1.78,3.29A3.67,3.67,0,0,1,795.23,844.06Z"/><path class="cls-4" d="M799.52,834.62a5.8,5.8,0,0,1-2,4.18A5.44,5.44,0,0,1,799.52,834.62Z"/><path class="cls-4" d="M797.55,838.76l-1.16,2.11Z"/><path class="cls-1" d="M539.7,1111.33l-1.78,1.37Z"/><path class="cls-1" d="M437.66,1187.35l-1.74,1.29Z"/><path class="cls-4" d="M817.19,759a1.66,1.66,0,0,1-.5,1.51A1.13,1.13,0,0,1,817.19,759Z"/><path class="cls-4" d="M831.88,861c2.94,1.23,4.11,3.61,4.44,6.61l-.08.14a7.57,7.57,0,0,1-4.46-6.65Z"/><path class="cls-3" d="M833.06,619.3c-.14-.71.15-1.15.86-1.15a.93.93,0,0,1,.69.44c.2.71-.14,1.11-.86,1.17C833.51,619.61,833.12,619.5,833.06,619.3Z"/><path class="cls-4" d="M831.78,861.07c-.59-.65-2.71-.24-1.51-2.15l1.61,2.05Z"/><path class="cls-2" d="M777.7,885.9a2,2,0,0,1,.6-.06,2.15,2.15,0,0,1,2.09,2.22,3.31,3.31,0,0,1-2.86,3.53,3.24,3.24,0,0,1-3.92-2.28C773.73,886.74,775.67,886.15,777.7,885.9Z"/><path class="cls-3" d="M1109.31,262.14a1.58,1.58,0,0,1-2,1,1.91,1.91,0,0,1-1.08-1.34,1.29,1.29,0,0,1,0-.39,1.48,1.48,0,0,1,1.57-1.39,1.61,1.61,0,0,1,1.58,1.8A1.5,1.5,0,0,1,1109.31,262.14Z"/><path class="cls-3" d="M1261.63,230.6c.56-.52,1-.36,1.1.4a.74.74,0,0,1-.42.57c-.21.05-.48-.15-.7-.23C1261.61,231.08,1261.51,230.72,1261.63,230.6Z"/><path class="cls-2" d="M867.8,246.92c-.5-23.53,17.63-41.72,41.5-41.72,22.3,0,39.6,18.12,39.53,41.46a39.45,39.45,0,0,1-39.24,39.54C886.26,287.36,868.26,268.47,867.8,246.92Zm34.61,2.94a1.4,1.4,0,0,0,.05.54,1.52,1.52,0,0,0,1.88,1.07,1.53,1.53,0,0,0,1.07-1.88,1.91,1.91,0,0,0-1-1.33c-1-.27-1.79.2-2,1.6Z"/><path class="cls-2" d="M1190.28,286.26A39.86,39.86,0,0,1,1150,246.83c-.15-23.53,16.83-41.59,39.22-41.72,23.79-.14,41.22,16.88,41.49,40.51.26,23-17,40.39-40.2,40.63Z"/><path class="cls-3" d="M904.31,248.66a1.91,1.91,0,0,1,1.05,1.33,1.65,1.65,0,0,1,0,.54,1.53,1.53,0,0,1-3-.27C902.57,248.86,903.35,248.39,904.31,248.66Z"/></g></g></g></g></svg>